<?xml version="1.0" standalone="no"?>
<svg viewBox="0 0 200 200" xmlns="http://www.w3.org/2000/svg">
  <path fill="#08BDBA" d="M31.6,-50.7C41.5,-42.9,50.2,-34.9,60.3,-24.2C70.4,-13.5,81.8,0,81.5,12.7C81.2,25.5,69.3,37.5,56.9,46.3C44.6,55.1,32,60.5,17.8,68.2C3.5,75.9,-12.3,85.8,-26.9,84.7C-41.5,83.5,-54.9,71.4,-65.3,57.6C-75.6,43.8,-83,28.4,-83.2,13.2C-83.5,-2,-76.6,-16.9,-67.3,-28C-58,-39.2,-46.3,-46.5,-34.7,-53.4C-23.1,-60.4,-11.5,-66.8,-0.3,-66.4C10.9,-65.9,21.8,-58.4,31.6,-50.7Z" transform="translate(100 100)" />
</svg>
